<?xml version="1.0" encoding="utf-8"?>
<!-- Generator: Adobe Illustrator 16.0.3, SVG Export Plug-In . SVG Version: 6.00 Build 0)  -->
<!DOCTYPE svg PUBLIC "-//W3C//DTD SVG 1.1//EN" "http://www.w3.org/Graphics/SVG/1.1/DTD/svg11.dtd">
<svg version="1.1"
	 id="svg2" xmlns:dc="http://purl.org/dc/elements/1.1/" xmlns:cc="http://creativecommons.org/ns#" xmlns:rdf="http://www.w3.org/1999/02/22-rdf-syntax-ns#" xmlns:svg="http://www.w3.org/2000/svg" xmlns:sodipodi="http://sodipodi.sourceforge.net/DTD/sodipodi-0.dtd" xmlns:inkscape="http://www.inkscape.org/namespaces/inkscape" sodipodi:docname="icon_height_mul.svg" inkscape:version="1.2.2 (732a01da63, 2022-12-09)"
	 xmlns="http://www.w3.org/2000/svg" xmlns:xlink="http://www.w3.org/1999/xlink" x="0px" y="0px" width="16px" height="16px"
	 viewBox="0 0 16 16" enable-background="new 0 0 16 16" xml:space="preserve">
<defs>
	
	<inkscape:path-effect  lpeversion="1" effect="spiro" is_visible="true" id="path-effect6469"></inkscape:path-effect>
	<inkscape:path-effect  lpeversion="1" effect="spiro" is_visible="true" id="path-effect6463"></inkscape:path-effect>
	<inkscape:path-effect  lpeversion="1" effect="spiro" is_visible="true" id="path-effect4977"></inkscape:path-effect>
	<inkscape:path-effect  lpeversion="1" effect="spiro" is_visible="true" id="path-effect4245"></inkscape:path-effect>
	<inkscape:path-effect  lpeversion="1" effect="spiro" is_visible="true" id="path-effect3156"></inkscape:path-effect>
	<inkscape:path-effect  lpeversion="1" effect="spiro" is_visible="true" id="path-effect2324"></inkscape:path-effect>
	
		<inkscape:path-effect  lpeversion="1" effect="powerstroke" is_visible="true" scale_width="1" miter_limit="4" linejoin_type="spiro" sort_points="true" not_jump="true" offset_points="0.76255776,0.35156248" id="path-effect2285" start_linecap_type="round" end_linecap_type="round" interpolator_type="CentripetalCatmullRom" interpolator_beta="0.75">
		</inkscape:path-effect>
	
		<inkscape:path-effect  lpeversion="1" effect="simplify" is_visible="true" step="1" helper_size="0" smooth_angles="0" threshold="0.0028332064" steps="1" id="path-effect2283" simplify_individual_paths="false" simplify_just_coalesce="false">
		</inkscape:path-effect>
</defs>
<sodipodi:namedview  inkscape:cy="11.21875" inkscape:cx="4.5156248" inkscape:zoom="32.000001" showgrid="false" guidetolerance="10" gridtolerance="10" objecttolerance="10" borderopacity="1" pagecolor="#ffffff" bordercolor="#666666" id="namedview8" inkscape:current-layer="svg2" inkscape:window-maximized="1" inkscape:window-y="-8" inkscape:window-x="-8" inkscape:object-nodes="true" inkscape:snap-grids="false" inkscape:window-height="1009" inkscape:window-width="1920" inkscape:pageshadow="2" inkscape:pageopacity="0" inkscape:object-paths="false" inkscape:snap-smooth-nodes="false" inkscape:snap-to-guides="true" inkscape:pagecheckerboard="0" inkscape:showpageshadow="0" inkscape:deskcolor="#d1d1d1" showguides="false">
	<inkscape:grid  type="xygrid" id="grid4140"></inkscape:grid>
</sodipodi:namedview>
<path id="path16308" sodipodi:nodetypes="sssscccccccccccssss" fill="#FC7F7F" d="M8.064,1.4C7.156,1.38,6.351,1.753,5.732,2.275
	c-0.608,0.513-1.021,1.145-1.334,1.76C3.774,5.26,3.475,6.414,2.908,7.173C2.425,7.823,1.684,8.308,0.895,8.488L0,8.646v2.154
	c1.843,0.457,5.033-1.792,5.506-4.325C6.03,5.322,6.454,3.693,7.883,3.408h0.049l0.1-0.006c1.33,0.167,1.81,1.646,2.283,2.701
	c0.816,3.09,3.985,4.793,5.686,4.59V8.568l-0.797-0.165c-0.887-0.183-1.725-0.729-2.248-1.467c-0.525-0.739-0.82-1.83-1.424-2.988
	c-0.303-0.581-0.698-1.178-1.271-1.668C9.678,1.784,8.924,1.418,8.064,1.4z"/>
<path fill="#FC7F7F" d="M10.064,9.872c-0.485-1.06-0.764-3.146-2.182-3.13C6.454,7.026,6.5,8.686,5.976,9.842
	C5.39,11.51,1.708,12.982,0,13.574V16c4,0,12,0,16,0v-2.537C14.176,12.84,10.674,11.646,10.064,9.872z"/>
</svg>
